<svg width="21" height="24" viewBox="0 0 21 24" fill="none" xmlns="http://www.w3.org/2000/svg">
<path d="M10.2886 23.95C8.2482 23.95 6.58857 22.2904 6.58857 20.25C6.58857 19.8636 6.90219 19.55 7.28857 19.55C7.67496 19.55 7.98857 19.8636 7.98857 20.25C7.98857 21.5187 9.02006 22.55 10.2886 22.55C11.5573 22.55 12.5886 21.5187 12.5886 20.25C12.5886 19.8636 12.9022 19.55 13.2886 19.55C13.675 19.55 13.9886 19.8636 13.9886 20.25C13.9886 22.2904 12.329 23.95 10.2886 23.95Z" fill="#070A0C" stroke="white" stroke-width="0.1"/>
<path d="M1.84638 19.0198L1.84619 19.02C1.80519 19.055 1.73857 19.1297 1.73857 19.2501C1.73857 19.4135 1.87503 19.55 2.03851 19.55H18.5385C18.7022 19.55 18.8386 19.4136 18.8386 19.2501C18.8386 19.1299 18.772 19.0551 18.7329 19.0219L18.7328 19.0218C16.8931 17.4663 15.8386 15.1942 15.8386 12.7881V9.99994C15.8386 6.93936 13.3493 4.45 10.2885 4.45C7.22794 4.45 4.73857 6.93937 4.73857 9.99994V12.7881C4.73857 15.1942 3.68414 17.4663 1.84638 19.0198ZM2.03851 20.95C1.10116 20.95 0.338574 20.1874 0.338574 19.2501C0.338574 18.7526 0.555142 18.2817 0.932834 17.9581C2.46507 16.6636 3.33857 14.7818 3.33857 12.7881V9.99994C3.33857 6.16769 6.45626 3.05 10.2885 3.05C14.1209 3.05 17.2386 6.16769 17.2386 9.99994V12.7881C17.2386 14.7818 18.1121 16.6636 19.6343 17.9512C20.0222 18.2818 20.2386 18.7528 20.2386 19.2501C20.2386 20.1874 19.4761 20.95 18.5385 20.95H2.03851Z" fill="#070A0C" stroke="white" stroke-width="0.1"/>
<path d="M10.2886 4.45C9.90219 4.45 9.58857 4.13639 9.58857 3.75V0.75C9.58857 0.363613 9.90219 0.05 10.2886 0.05C10.675 0.05 10.9886 0.363613 10.9886 0.75V3.75C10.9886 4.13639 10.675 4.45 10.2886 4.45Z" fill="#070A0C" stroke="white" stroke-width="0.1"/>
</svg>
