<svg width="25" height="25" viewBox="0 0 25 25" fill="none" xmlns="http://www.w3.org/2000/svg">
<g clip-path="url(#clip0_938_6232)">
<path d="M8.35877 17.5987L8.33663 17.6207C7.43074 18.5205 6.20513 19.0244 4.92833 19.0222M8.35877 17.5987L4.91122 18.9472L4.9116 19.0222L4.92833 19.0222M8.35877 17.5987V17.5675V17.2536V17.2368L8.35155 17.2215L5.00831 10.1635L4.94053 10.0204L4.87275 10.1635L1.5295 17.2215L1.52228 17.2368V17.2536V17.6228V17.6547L1.54532 17.6769C2.44977 18.5459 3.65714 19.0285 4.91141 19.0222L8.35877 17.5987ZM4.92833 19.0222L4.92846 18.9472V19.0222H4.92833ZM23.4034 17.5987L23.3812 17.6207C22.4753 18.5205 21.2497 19.0244 19.9729 19.0222M23.4034 17.5987L19.9731 18.9472M23.4034 17.5987V17.5675V17.2536V17.2368L23.3962 17.2215L20.0529 10.1635L19.9851 10.0204L19.9174 10.1635L16.5741 17.2215L16.5669 17.2368V17.2536V17.6228V17.6547L16.5899 17.6769C17.4944 18.5459 18.7017 19.0285 19.956 19.0222M23.4034 17.5987L19.956 19.0222M19.9729 19.0222L19.9731 18.9472M19.9729 19.0222H19.9731V18.9472M19.9729 19.0222L19.9562 19.0222L19.9558 18.9472M19.9731 18.9472H19.9558M19.9558 18.9472V19.0222H19.956M19.9558 18.9472L19.956 19.0222M19.9851 10.1956L20.0266 10.2832L20.0529 10.2277L19.9851 10.1956ZM19.9851 10.1956L19.9174 10.2277L19.9436 10.2832L19.9851 10.1956ZM9.8804 16.8944V18.1955L9.65167 18.4471C9.0532 19.1041 8.32487 19.6296 7.51277 19.9905C6.70074 20.3514 5.82264 20.5398 4.93404 20.5438C4.93397 20.5438 4.93389 20.5438 4.93382 20.5438L4.91229 20.5438C4.02726 20.5429 3.15197 20.359 2.34138 20.0037C1.53079 19.6485 0.802394 19.1295 0.201933 18.4793L0.000659183 18.2609V16.8944L4.04117 8.36455H5.83988L9.8804 16.8944ZM15.0453 16.8944L19.0858 8.36455H20.8845L24.925 16.8944V18.1955L24.6963 18.447C24.0978 19.104 23.3695 19.6296 22.5574 19.9905C21.7454 20.3514 20.8672 20.5398 19.9786 20.5438C19.9786 20.5438 19.9785 20.5438 19.9784 20.5438L19.9569 20.5438C19.0719 20.5429 18.1966 20.359 17.386 20.0037C16.5754 19.6485 15.847 19.1295 15.2465 18.4793L15.0453 18.2609V16.8944Z" fill="#070A0C" stroke="white" stroke-width="0.15"/>
<path d="M13.2771 8.51351L13.2237 8.52957V8.58534V22.4985V22.5735H13.2987H18.6564V24.0951H6.26927V22.5735H11.627H11.702V22.4985V8.58534V8.52957L11.6486 8.51351C11.1955 8.37732 10.7833 8.13094 10.4487 7.79639C10.1142 7.46185 9.86782 7.0496 9.73163 6.59651L9.71557 6.5431H9.6598H4.17974V5.02148H9.6598H9.71571L9.73168 4.9679C9.90697 4.37968 10.2675 3.86377 10.7596 3.49693C11.2517 3.13009 11.8491 2.93193 12.4629 2.93193C13.0766 2.93193 13.674 3.13009 14.1661 3.49693C14.6582 3.86377 15.0187 4.37968 15.194 4.9679L15.21 5.02148H15.2659H20.746V6.5431H15.2659H15.2101L15.1941 6.59651C15.0579 7.0496 14.8115 7.46185 14.477 7.79639C14.1424 8.13094 13.7302 8.37732 13.2771 8.51351ZM11.3581 5.04409C11.2121 5.2626 11.1341 5.51949 11.1341 5.78229C11.1341 6.13469 11.2741 6.47265 11.5233 6.72183C11.7725 6.97102 12.1105 7.111 12.4629 7.111C12.7256 7.111 12.9825 7.03308 13.201 6.88708C13.4196 6.74107 13.5899 6.53356 13.6904 6.29077C13.791 6.04797 13.8173 5.78081 13.766 5.52307C13.7148 5.26532 13.5882 5.02857 13.4024 4.84274C13.2166 4.65692 12.9798 4.53037 12.7221 4.4791C12.4643 4.42783 12.1972 4.45415 11.9544 4.55471C11.7116 4.65528 11.5041 4.82559 11.3581 5.04409Z" fill="#070A0C" stroke="white" stroke-width="0.15"/>
</g>
<defs>
<clipPath id="clip0_938_6232">
<rect width="25" height="25" fill="white"/>
</clipPath>
</defs>
</svg>
