<svg width="101" height="30" viewBox="0 0 101 30" fill="none" xmlns="http://www.w3.org/2000/svg">
<path d="M98.1112 6.36532C102.461 14.9209 100.047 21.4029 98.2965 23.5744C101.456 14.8781 98.2965 10.3666 97.2959 8.31553C87.5614 11.3272 81.2324 9.62749 74.827 8.31553C69.1161 6.84922 64.2541 3.91661 51.366 2.68182C38.478 1.44704 19.1109 6.77776 17.0649 6.81788C20.8761 5.49401 27.3713 3.3281 37.8887 0.956536C48.4061 -1.41503 61.2699 0.843903 73.5502 5.3039C85.8304 9.76389 95.7512 6.96281 98.1112 6.36532Z" fill="#3765FF"/>
<path d="M9.20304 23.1366L7.98744 19.5439C7.89739 19.3158 7.80134 19.0486 7.69929 18.7425C7.59724 18.4303 7.49519 18.0941 7.39314 17.734C7.3031 18.1002 7.20705 18.4393 7.105 18.7515C7.00295 19.0636 6.9069 19.3338 6.81686 19.5619L5.61026 23.1366H9.20304ZM14.0384 28.1521H11.6793C11.4151 28.1521 11.202 28.0921 11.0399 27.972C10.8779 27.846 10.7548 27.6869 10.6708 27.4948L9.89638 25.2077H4.90792L4.13353 27.4948C4.0675 27.6629 3.94744 27.816 3.77336 27.954C3.60527 28.0861 3.39517 28.1521 3.14304 28.1521H0.765869L5.84438 15.0326H8.95992L14.0384 28.1521Z" fill="#070A0C"/>
<path d="M20.2134 25.7479C20.6216 25.7479 20.9847 25.6819 21.3029 25.5498C21.6271 25.4118 21.9002 25.2167 22.1223 24.9645C22.3444 24.7124 22.5125 24.4063 22.6266 24.0461C22.7466 23.6799 22.8066 23.2657 22.8066 22.8035V15.0326H25.8502V22.8035C25.8502 23.6079 25.7181 24.3462 25.454 25.0186C25.1958 25.6909 24.8236 26.2702 24.3374 26.7564C23.8512 27.2427 23.2599 27.6209 22.5635 27.891C21.8672 28.1611 21.0838 28.2962 20.2134 28.2962C19.3369 28.2962 18.5505 28.1611 17.8542 27.891C17.1579 27.6209 16.5666 27.2427 16.0803 26.7564C15.5941 26.2702 15.2219 25.6909 14.9638 25.0186C14.7056 24.3462 14.5766 23.6079 14.5766 22.8035V15.0326H17.6201V22.7945C17.6201 23.2567 17.6771 23.6709 17.7912 24.0371C17.9112 24.3973 18.0823 24.7064 18.3044 24.9645C18.5265 25.2167 18.7967 25.4118 19.1148 25.5498C19.439 25.6819 19.8052 25.7479 20.2134 25.7479Z" fill="#070A0C"/>
<path d="M37.6554 17.4458H33.9636V28.1521H30.9201V17.4458H27.2283V15.0326H37.6554V17.4458Z" fill="#070A0C"/>
<path d="M51.7793 21.5879C51.7793 22.5363 51.6142 23.4188 51.2841 24.2352C50.9599 25.0516 50.5007 25.7629 49.9064 26.3692C49.3121 26.9695 48.5947 27.4408 47.7543 27.7829C46.9199 28.1251 45.9924 28.2962 44.9719 28.2962C43.9514 28.2962 43.021 28.1251 42.1806 27.7829C41.3401 27.4408 40.6198 26.9695 40.0195 26.3692C39.4252 25.7629 38.963 25.0516 38.6328 24.2352C38.3087 23.4188 38.1466 22.5363 38.1466 21.5879C38.1466 20.6394 38.3087 19.757 38.6328 18.9406C38.963 18.1242 39.4252 17.4158 40.0195 16.8155C40.6198 16.2152 41.3401 15.744 42.1806 15.4018C43.021 15.0596 43.9514 14.8886 44.9719 14.8886C45.9924 14.8886 46.9199 15.0627 47.7543 15.4108C48.5947 15.753 49.3121 16.2242 49.9064 16.8245C50.5007 17.4248 50.9599 18.1332 51.2841 18.9496C51.6142 19.766 51.7793 20.6454 51.7793 21.5879ZM48.6638 21.5879C48.6638 20.9396 48.5797 20.3573 48.4116 19.841C48.2436 19.3188 48.0004 18.8775 47.6823 18.5174C47.3701 18.1572 46.9859 17.881 46.5297 17.6889C46.0735 17.4969 45.5542 17.4008 44.9719 17.4008C44.3837 17.4008 43.8584 17.4969 43.3962 17.6889C42.9399 17.881 42.5527 18.1572 42.2346 18.5174C41.9224 18.8775 41.6823 19.3188 41.5142 19.841C41.3462 20.3573 41.2621 20.9396 41.2621 21.5879C41.2621 22.2422 41.3462 22.8305 41.5142 23.3527C41.6823 23.869 41.9224 24.3072 42.2346 24.6674C42.5527 25.0276 42.9399 25.3037 43.3962 25.4958C43.8584 25.6819 44.3837 25.7749 44.9719 25.7749C45.5542 25.7749 46.0735 25.6819 46.5297 25.4958C46.9859 25.3037 47.3701 25.0276 47.6823 24.6674C48.0004 24.3072 48.2436 23.869 48.4116 23.3527C48.5797 22.8305 48.6638 22.2422 48.6638 21.5879Z" fill="#070A0C"/>
<path d="M61.4838 25.7209V28.1521H53.5779V15.0326H56.6214V25.7209H61.4838Z" fill="#3765FF"/>
<path d="M66.1012 28.1521H63.0396V15.0326H66.1012V28.1521Z" fill="#3765FF"/>
<path d="M80.0859 15.0326V28.1521H78.5011C78.267 28.1521 78.0689 28.1161 77.9068 28.044C77.7508 27.966 77.5947 27.8339 77.4386 27.6479L71.2525 19.823C71.2766 20.0571 71.2916 20.2852 71.2976 20.5073C71.3096 20.7234 71.3156 20.9275 71.3156 21.1196V28.1521H68.6323V15.0326H70.235C70.3671 15.0326 70.4782 15.0386 70.5682 15.0506C70.6583 15.0626 70.7393 15.0866 70.8113 15.1227C70.8834 15.1527 70.9524 15.1977 71.0184 15.2577C71.0845 15.3178 71.1595 15.3988 71.2435 15.5009L77.4836 23.3797C77.4536 23.1276 77.4326 22.8845 77.4206 22.6504C77.4086 22.4103 77.4026 22.1852 77.4026 21.9751V15.0326H80.0859Z" fill="#3765FF"/>
<path d="M85.6929 17.3738V20.4353H89.8169V22.6864H85.6929V25.8109H91.0775V28.1521H82.6314V15.0326H91.0775V17.3738H85.6929Z" fill="#3765FF"/>
</svg>
