<?xml version="1.0" encoding="UTF-8"?>
<svg fill="white" width="700pt" height="550pt" version="1.1" viewBox="0 0 700 700" xmlns="http://www.w3.org/2000/svg">
 <g>
  <path d="m533.56 531.34c0 11.168-9.0117 20.176-20.176 20.176h-326.77c-11.148 0-20.176-9.0117-20.176-20.176 0-11.133 9.0273-20.176 20.176-20.176h326.77c11.164-0.019531 20.176 9.0234 20.176 20.176z"/>
  <path d="m378.85 233.4s-23.062 59.887-53.828 82.691c-30.781 22.84-134.57 54.184-134.57 176.82h319.08s26.184-48.484-30.73-129.75c-42.629-60.852-39.473-88.328-26.949-129.75h-73.004z"/>
  <path d="m414.84 111.42-19.16 103.31h41.066l17.766-95.879c25.793-4.8711 45.273-27.441 45.273-54.66 0-30.781-24.93-55.711-55.676-55.711-30.75 0-55.711 24.93-55.711 55.711 0.003906 19.992 10.645 37.387 26.441 47.227z"/>
 </g>
</svg>
